<svg width="711" height="536" viewBox="0 0 711 536" fill="none" xmlns="http://www.w3.org/2000/svg">
<g clip-path="url(#clip0_966_1398)">
<path opacity="0.18" d="M609.586 257.826C600.903 297.725 592.215 337.597 583.522 377.441C580.127 393.016 576.704 408.688 570.595 423.372C566.162 434.02 560.327 444.028 553.243 453.129C531.799 480.799 499.558 500.202 464.811 504.934C442.658 507.954 420.018 505.407 397.907 508.706C369.993 512.881 344.222 526.132 316.655 532.158C277.303 540.774 235.641 534.149 198.376 518.783C169.028 506.688 118.808 484.947 99.2295 453.157C95.3535 447.065 92.7458 440.253 91.5621 433.129C81.8215 370.356 93.886 293.332 114.661 233.928C155.016 118.404 260.201 28.0178 380.443 5.38641C426.043 -3.18736 474.274 -2.40792 517.578 14.2525C560.882 30.9129 598.634 64.6791 614.094 108.439C630.946 156.054 620.342 208.471 609.586 257.826Z" fill="#FFA7AB"/>
<path d="M553.243 453.157C531.799 480.827 499.558 500.23 464.811 504.962C442.658 507.982 420.018 505.435 397.907 508.734C369.993 512.909 344.222 526.16 316.656 532.186C277.303 540.802 235.641 534.177 198.376 518.811C169.028 506.688 118.808 484.947 99.2295 453.157H553.243Z" fill="#FF8C8D"/>
<path d="M352.557 461.216C307.75 450.833 261.022 455.092 215.241 459.393C211.067 459.783 206.739 460.228 203.177 462.427C199.614 464.626 197.124 469.178 198.64 473.089C200.032 476.526 203.733 478.28 207.24 479.449C229.504 486.979 253.661 485.184 277.136 484.112C353.197 480.66 430.204 485.782 504.776 470.068C512.374 468.468 520.5 466.31 525.385 460.325C511.4 453.213 494.535 455.162 479.464 459.476C464.394 463.791 449.811 470.347 434.226 472.073C425.473 473.033 422.537 463.847 415.287 460.52C409.721 457.959 406.089 458.6 400.384 460.325C382.698 465.642 370.856 465.461 352.557 461.216Z" fill="url(#paint0_linear_966_1398)"/>
<path d="M297.787 453.31C295.652 453.298 293.56 452.706 291.734 451.599C289.908 450.492 288.416 448.911 287.416 447.023C286.417 445.136 285.948 443.013 286.059 440.88C286.17 438.747 286.857 436.684 288.046 434.91V434.91C289.185 433.213 290.744 431.84 292.571 430.926C294.398 430.012 296.431 429.587 298.471 429.693C300.511 429.799 302.489 430.433 304.211 431.532C305.934 432.631 307.342 434.158 308.298 435.964C309.254 437.77 309.725 439.793 309.666 441.836C309.607 443.879 309.019 445.871 307.96 447.619C306.901 449.366 305.407 450.809 303.624 451.807C301.841 452.804 299.83 453.322 297.787 453.31ZM293.766 438.793C293.231 439.591 292.945 440.529 292.943 441.489C292.941 442.449 293.224 443.389 293.755 444.188C294.287 444.988 295.043 445.612 295.929 445.981C296.815 446.351 297.791 446.45 298.733 446.265C299.675 446.081 300.541 445.621 301.222 444.944C301.903 444.268 302.368 443.404 302.559 442.463C302.75 441.522 302.657 440.546 302.293 439.657C301.929 438.769 301.31 438.008 300.515 437.471C299.444 436.753 298.132 436.489 296.867 436.737C295.602 436.985 294.487 437.725 293.766 438.793Z" fill="#2E2E3F"/>
<path d="M211.219 453.31C209.082 453.302 206.987 452.714 205.158 451.608C203.329 450.502 201.835 448.92 200.835 447.031C199.834 445.141 199.366 443.016 199.48 440.881C199.593 438.747 200.284 436.683 201.478 434.91V434.91C202.617 433.213 204.176 431.84 206.003 430.926C207.83 430.012 209.863 429.587 211.903 429.693C213.943 429.799 215.921 430.433 217.643 431.532C219.366 432.631 220.774 434.158 221.73 435.964C222.686 437.77 223.157 439.793 223.098 441.836C223.039 443.879 222.451 445.871 221.392 447.619C220.333 449.366 218.84 450.809 217.056 451.807C215.273 452.804 213.262 453.322 211.219 453.31V453.31ZM207.212 438.793C206.675 439.591 206.387 440.529 206.385 441.49C206.382 442.451 206.664 443.392 207.195 444.192C207.727 444.993 208.484 445.618 209.37 445.988C210.257 446.358 211.234 446.457 212.176 446.272C213.119 446.086 213.986 445.626 214.667 444.948C215.348 444.27 215.812 443.405 216.002 442.463C216.191 441.521 216.097 440.544 215.731 439.655C215.366 438.767 214.744 438.007 213.947 437.471C212.878 436.754 211.568 436.49 210.306 436.738C209.043 436.986 207.93 437.725 207.212 438.793V438.793Z" fill="#2E2E3F"/>
<path d="M394.358 207.984C393.939 209.358 393.326 210.666 392.535 211.867C390.976 213.722 389.002 215.185 386.775 216.14C377.952 220.663 364.51 225.535 357.024 232.076C356.115 232.799 355.362 233.699 354.811 234.721C353.74 237.045 354.811 239.732 355.799 242.07C356.243 243.393 357.031 244.575 358.081 245.494C359.988 246.886 362.632 246.287 364.9 245.619C373.599 243.025 382.155 239.973 390.532 236.475C395.218 234.584 399.77 232.375 404.155 229.863C405.913 228.959 407.441 227.664 408.622 226.078C409.45 224.649 410.003 223.076 410.25 221.443C411.833 213.007 412.897 204.482 413.436 195.916L415.106 175.818C415.44 171.949 427.212 158.406 423.664 155.748C416.706 150.542 406.59 164.711 405.004 167.62C400.523 175.818 396.098 203.029 394.358 207.984Z" fill="#68E1FD"/>
<path d="M394.358 207.984C393.939 209.358 393.326 210.666 392.535 211.867C390.976 213.722 389.002 215.185 386.775 216.14C377.952 220.663 364.51 225.535 357.024 232.076C356.115 232.799 355.362 233.699 354.811 234.721C353.74 237.045 354.811 239.732 355.799 242.07C356.243 243.393 357.031 244.575 358.081 245.494C359.988 246.886 362.632 246.287 364.9 245.619C373.599 243.025 382.155 239.973 390.532 236.475C395.218 234.584 399.77 232.375 404.155 229.863C405.913 228.959 407.441 227.664 408.622 226.078C409.45 224.649 410.003 223.076 410.25 221.443C411.833 213.007 412.897 204.482 413.436 195.916L415.106 175.818C415.44 171.949 427.212 158.406 423.664 155.748C416.706 150.542 406.59 164.711 405.004 167.62C400.523 175.818 396.098 203.029 394.358 207.984Z" fill="url(#paint1_linear_966_1398)"/>
<path d="M502.423 425.668C503.548 427.465 504.133 429.547 504.107 431.667C503.976 432.463 503.677 433.223 503.231 433.895C502.785 434.567 502.202 435.137 501.519 435.567C500.837 435.997 500.071 436.278 499.272 436.39C498.473 436.502 497.66 436.444 496.885 436.219C495.625 435.697 494.48 434.931 493.518 433.964C481.871 423.608 472.645 410.845 464.296 397.623C462.041 394.032 459.857 390.399 457.936 386.627C451.448 373.845 448.041 359.722 447.987 345.387C447.899 344.565 448.101 343.738 448.557 343.048C449.037 342.563 449.654 342.237 450.325 342.116C456.086 340.501 465.061 340.348 470.154 344.106C475.873 348.282 474.496 361.435 474.245 367.42C473.954 369.973 474.21 372.559 474.996 375.005C476.039 377.099 477.454 378.985 479.171 380.573C490.846 393.113 494.895 410.497 502.423 425.668Z" fill="#F3BD8F"/>
<path d="M430.205 397.122C431.411 413.382 429.265 429.716 423.901 445.113C423.574 446.506 422.826 447.765 421.758 448.717C421.035 449.162 420.207 449.407 419.359 449.427C418.51 449.446 417.672 449.24 416.929 448.829C413.158 446.992 411.837 442.983 411.196 439.086C408.397 421.888 407.066 404.483 407.217 387.059C407.217 378.833 407.453 370.997 406.813 362.813C406.173 354.392 405.227 345.985 405.227 337.523C405.07 336.684 405.229 335.816 405.672 335.087C406.023 334.765 406.44 334.524 406.895 334.382C407.35 334.24 407.83 334.2 408.302 334.266C414.341 334.266 425.362 330.786 430.066 334.628C436.258 339.68 426.35 361.894 425.362 368.324C423.706 379.055 428.368 382.243 429.745 392.835C429.926 394.338 430.079 395.73 430.205 397.122Z" fill="#F5BD8D"/>
<path d="M399.799 337.62C399.657 339.251 400.064 340.882 400.954 342.255C401.88 343.212 403.065 343.879 404.363 344.176C410.987 346.236 417.972 346.667 424.888 347.099C427.003 347.224 429.341 347.28 430.969 345.943C431.978 344.963 432.729 343.749 433.154 342.408L440.835 323.604C440.26 330.241 440.088 336.906 440.32 343.563C440.209 344.991 440.63 346.409 441.503 347.544C442.622 348.406 444.02 348.823 445.427 348.713C456.088 349.114 466.76 348.34 477.251 346.403C481.315 331.413 481.426 315.559 479.408 300.166C478.615 294.167 477.432 288.057 474.246 282.907C473.467 281.499 472.359 280.3 471.017 279.413C469.009 278.45 466.782 278.032 464.561 278.202C448.447 278.035 432.083 277.659 416.066 279.942C411.07 280.652 408.454 282.211 406.715 287.096C404.209 294.794 402.461 302.719 401.497 310.758C400.219 319.652 399.651 328.635 399.799 337.62Z" fill="#2E2E3F"/>
<path d="M477.252 346.403L474.747 346.834C465.063 348.454 455.24 349.083 445.428 348.713C444.02 348.823 442.622 348.406 441.504 347.544C440.631 346.409 440.21 344.991 440.321 343.563C440.105 337.371 440.245 331.172 440.739 324.996C440.739 324.843 440.739 324.676 440.739 324.523C440.739 324.37 440.739 323.91 440.808 323.604C438.248 329.854 435.701 336.131 433.141 342.38C432.716 343.721 431.965 344.936 430.956 345.916C429.328 347.307 426.99 347.196 424.875 347.071H423.915C417.319 346.653 410.682 346.166 404.434 344.204C403.133 343.913 401.947 343.244 401.024 342.283C400.134 340.91 399.728 339.278 399.869 337.648C399.718 328.64 400.286 319.634 401.567 310.716C402.53 302.716 404.268 294.829 406.757 287.166C408.497 282.28 411.113 280.721 416.109 280.012C432.125 277.729 448.489 278.105 464.603 278.272C466.613 278.156 468.624 278.469 470.503 279.19C470.696 279.274 470.882 279.371 471.06 279.483C472.402 280.37 473.509 281.568 474.288 282.976C477.475 288.126 478.658 294.236 479.451 300.235C481.455 315.559 481.315 331.412 477.252 346.403Z" fill="url(#paint2_linear_966_1398)"/>
<path d="M477.252 346.403L474.747 346.834C474.15 346.526 473.569 346.186 473.007 345.818C471.629 345.057 470.47 343.955 469.64 342.617C469.032 341.262 468.737 339.787 468.777 338.302C468.318 325.887 470.684 313.249 468.165 301.126C467.26 296.756 465.451 292.775 464.157 288.599C462.974 284.744 465.618 282.447 468.721 280.248C469.269 279.841 469.851 279.482 470.461 279.177C470.653 279.26 470.84 279.358 471.017 279.469C472.359 280.356 473.467 281.555 474.246 282.962C477.432 288.112 478.615 294.222 479.408 300.221C481.454 315.559 481.315 331.413 477.252 346.403Z" fill="url(#paint3_linear_966_1398)"/>
<path d="M440.821 323.632C438.26 329.881 435.714 336.159 433.154 342.408C432.728 343.749 431.978 344.963 430.969 345.943C429.341 347.335 427.003 347.224 424.888 347.099H423.928C423.567 346.905 423.227 346.677 422.912 346.417C421.733 345.419 420.893 344.079 420.509 342.583C420.125 341.087 420.216 339.508 420.769 338.066C421.45 336.678 422.311 335.387 423.329 334.224C429.396 326.444 432.708 316.937 435.937 307.612C437.672 309.622 438.996 311.953 439.833 314.474C440.729 317.438 441.064 320.544 440.821 323.632Z" fill="url(#paint4_linear_966_1398)"/>
<path d="M437.691 143.806C437.626 146.318 436.635 148.717 434.908 150.542C432.348 152.853 428.465 152.713 425.251 154.008C424.846 154.142 424.478 154.371 424.179 154.676C423.941 154.957 423.774 155.291 423.692 155.65C423.28 157.327 423.412 159.091 424.068 160.689C425.05 163.08 426.542 165.227 428.441 166.979C430.34 168.732 432.6 170.048 435.061 170.835C440.009 172.385 445.252 172.752 450.368 171.907C452.065 171.808 453.719 171.332 455.21 170.515C456.792 169.311 458.049 167.732 458.87 165.922C459.865 164.27 460.531 162.441 460.832 160.536C460.969 159.577 460.854 158.599 460.498 157.698C460.142 156.797 459.557 156.005 458.801 155.4C458.09 154.969 457.334 154.619 456.546 154.356C455.308 153.88 454.119 153.283 452.998 152.574C451.847 151.985 450.951 150.995 450.479 149.791C450.285 148.774 450.328 147.726 450.604 146.728C451.238 143.343 451.238 139.87 450.604 136.484C450.453 135.481 450.143 134.509 449.686 133.603C449.257 132.833 448.658 132.171 447.934 131.668C447.211 131.165 446.382 130.833 445.511 130.699C444.64 130.565 443.749 130.631 442.908 130.893C442.066 131.155 441.296 131.606 440.655 132.211C437.371 135.204 438.081 139.936 437.691 143.806Z" fill="#F3BD8F"/>
<path d="M422.287 125.809C422.098 128.117 422.291 130.44 422.857 132.685C424.499 138.015 430.135 141.453 435.715 141.676C437.546 141.82 439.382 141.469 441.031 140.66C441.975 140.121 442.845 139.461 443.619 138.698C447.515 135.134 451.105 130.875 452.288 125.725C452.692 123.772 452.86 121.776 452.789 119.782C452.838 116.846 452.328 113.926 451.286 111.181C450.245 108.755 448.595 106.639 446.496 105.039C444.397 103.44 441.92 102.41 439.305 102.05C433.92 101.368 428.869 104.096 424.931 107.478C422.955 109.176 423.247 112.517 422.996 115.064C422.648 118.613 422.412 122.218 422.287 125.809Z" fill="#F3BD8F"/>
<path d="M422.954 96.1209C421.451 98.6958 420.435 101.688 418.111 103.539C417.151 104.291 416.024 104.834 415.133 105.655C413.988 106.864 413.32 108.447 413.254 110.111C413.187 111.774 413.726 113.406 414.772 114.702C415.87 115.955 417.294 116.879 418.886 117.37C420.478 117.862 422.175 117.902 423.789 117.486C427.021 116.583 429.785 114.476 431.512 111.598C432.667 109.789 433.696 107.59 435.686 106.922C436.569 106.721 437.486 106.731 438.363 106.951C439.241 107.172 440.054 107.595 440.738 108.188C442.199 109.246 443.423 110.638 444.912 111.584C445.801 112.041 446.653 112.567 447.459 113.157C449.852 115.231 449.49 118.975 448.934 122.093C449.935 122.399 450.13 120.603 451.007 120.033C451.884 119.462 452.899 120.297 453.052 121.23C453.104 122.173 452.834 123.105 452.287 123.874C450.005 127.869 447.305 131.794 446.54 136.317C446.386 136.92 446.415 137.555 446.624 138.141C447.083 138.837 447.789 139.334 448.6 139.533C449.992 140.136 451.494 140.444 453.011 140.437C453.769 140.425 454.514 140.233 455.184 139.878C455.854 139.522 456.43 139.013 456.865 138.391C457.295 137.585 457.555 136.699 457.631 135.789C457.82 132.77 458.229 129.77 458.855 126.811C460.539 120.993 465.534 115.927 464.797 109.928C464.256 107.217 463.12 104.659 461.471 102.44C460.508 100.754 459.329 99.2004 457.965 97.819C456.623 96.6699 455.146 95.6884 453.567 94.8961C450.309 92.9524 446.741 91.5824 443.02 90.8458C438.608 90.1777 434.67 91.6113 430.357 91.8201C426.961 91.9732 424.846 92.7944 422.954 96.1209Z" fill="#2E2E3F"/>
<path d="M473.424 284.173C470.93 285.908 468.076 287.055 465.075 287.528C449.074 291.077 432.486 291.049 416.497 287.444C413.157 286.679 409.442 285.454 407.995 282.336C407.346 280.624 407.103 278.785 407.285 276.963C407.665 259.76 408.046 242.552 408.426 225.34C408.857 205.784 409.289 186.159 412.155 166.813C413 162.814 414.586 159.009 416.831 155.594C418.696 153.047 427.142 154.411 434.197 149.846C436.131 148.593 431.929 155.066 438.247 157.738C444.801 160.522 452.162 147.48 456.142 152.713C458.382 155.636 465.507 153.465 467.761 156.374C469.57 158.712 470.683 163.653 471.393 169.61C472.896 182.262 472.52 199.438 472.784 205.687C473.967 227.553 472.13 255.446 479.352 273.498C481.008 277.423 476.68 281.598 473.424 284.173Z" fill="#FF8D8D"/>
<path d="M473.425 284.173C470.931 285.908 468.076 287.055 465.075 287.528C461.08 288.413 457.038 289.077 452.969 289.518L451.828 289.365C454.806 279.622 454.945 269.378 454.862 259.245C454.862 253.678 454.695 248.041 454.583 242.446C454.514 238.91 454.389 235.194 452.566 232.174C450.743 229.154 446.596 227.233 443.562 229.056C448.781 225.911 453.053 212.604 455.196 207.148C458.278 199.244 460.435 191.01 461.624 182.61C462.432 176.848 462.125 166.715 470.948 169.443L471.435 169.61C472.938 182.262 472.562 199.438 472.826 205.687C474.009 227.553 472.172 255.446 479.394 273.498C481.008 277.423 476.681 281.598 473.425 284.173Z" fill="url(#paint5_linear_966_1398)"/>
<path d="M423.566 440.686C424.07 440.729 424.538 440.963 424.874 441.34C425.086 441.772 425.169 442.255 425.111 442.732C425.111 445.516 426.878 448.035 426.781 450.791C426.711 453.255 425.18 455.565 425.389 458.029C425.389 458.516 425.514 459.087 425.167 459.421C424.94 459.607 424.665 459.723 424.373 459.755C417.388 461.091 410.37 462.255 403.32 463.248C402.018 463.594 400.635 463.445 399.437 462.831C398.895 462.417 398.469 461.87 398.199 461.244C396.292 457.361 397.99 452.601 400.578 449.135C406.91 440.603 413.019 438.557 423.566 440.686Z" fill="#2E2E3F"/>
<path d="M511.498 439.601C511.006 441.82 509.744 443.792 507.935 445.168C503.455 449.308 498.333 452.692 492.768 455.189C491.646 455.818 490.36 456.09 489.08 455.969C488.11 455.688 487.258 455.096 486.657 454.284C486.056 453.471 485.739 452.484 485.754 451.473C485.823 449.453 486.346 447.473 487.285 445.683C489.971 439.475 491.835 430.373 499.002 427.909C505.264 425.808 512.166 433.421 511.498 439.601Z" fill="#2E2E3F"/>
<path d="M423.566 440.686C424.07 440.729 424.538 440.963 424.874 441.34C425.086 441.772 425.169 442.255 425.111 442.732C425.111 445.516 426.878 448.035 426.781 450.791C426.711 453.255 425.18 455.565 425.389 458.029C425.389 458.516 425.514 459.087 425.167 459.421C424.94 459.607 424.665 459.723 424.373 459.755C417.388 461.091 410.37 462.255 403.32 463.248C402.018 463.594 400.635 463.445 399.437 462.831C398.895 462.417 398.469 461.87 398.199 461.244C396.292 457.361 397.99 452.601 400.578 449.135C406.91 440.603 413.019 438.557 423.566 440.686Z" fill="url(#paint6_linear_966_1398)"/>
<path d="M507.935 445.196C503.455 449.336 498.333 452.72 492.768 455.217C491.646 455.846 490.36 456.118 489.08 455.997" fill="url(#paint7_linear_966_1398)"/>
<path d="M459.773 206.439C460.015 208.183 459.828 209.96 459.231 211.616C458.229 213.913 455.905 215.305 453.665 216.543L404.307 244.478C401.997 245.786 399.52 247.261 398.532 249.739C396.362 255.306 403.166 260.303 409.08 260.748C415.272 261.208 421.367 259.357 427.24 257.311C445.79 250.912 463.706 242.805 480.758 233.092C482.865 232.31 484.631 230.813 485.75 228.863C486.868 226.912 487.268 224.632 486.88 222.417C486.929 208.79 485.887 195.18 483.763 181.719C482.608 174.357 480.98 166.66 476.013 161.078C468.665 152.727 455.251 152.477 454.096 164.711C452.816 178.602 458.841 192.771 459.773 206.439Z" fill="#68E1FD"/>
<path d="M459.773 206.439C460.015 208.183 459.828 209.96 459.231 211.616C458.229 213.913 455.905 215.305 453.665 216.543L404.307 244.478C401.997 245.786 399.52 247.261 398.532 249.739C396.362 255.306 403.166 260.303 409.08 260.748C415.272 261.208 421.367 259.357 427.24 257.311C445.79 250.912 463.706 242.805 480.758 233.092C482.865 232.31 484.631 230.813 485.75 228.863C486.868 226.912 487.268 224.632 486.88 222.417C486.929 208.79 485.887 195.18 483.763 181.719C482.608 174.357 480.98 166.66 476.013 161.078C468.665 152.727 455.251 152.477 454.096 164.711C452.816 178.602 458.841 192.771 459.773 206.439Z" fill="url(#paint8_linear_966_1398)"/>
<path d="M392.187 249.113C388.626 249.102 385.194 250.445 382.586 252.871C381.315 254.109 380.459 255.71 380.135 257.455C379.811 259.199 380.035 261.002 380.777 262.614C381.305 263.693 382.226 264.53 383.351 264.952C384.344 265.226 385.397 265.192 386.371 264.854C389.154 264.005 391.45 261.848 394.177 260.679C394.838 260.354 395.591 260.271 396.306 260.442C396.766 260.676 397.204 260.951 397.614 261.264C398.187 261.577 398.825 261.751 399.478 261.773C400.13 261.795 400.779 261.663 401.371 261.389C402.55 260.817 403.544 259.925 404.238 258.814C405.245 257.418 405.737 255.716 405.629 253.998C405.351 251.354 403.82 250.505 401.538 250.24C398.407 249.906 395.402 249.001 392.187 249.113Z" fill="#F3BD8F"/>
<path d="M346.337 240.525C345.022 242.14 344.119 244.051 343.707 246.092C343.488 247.059 343.522 248.065 343.804 249.015C344.207 249.939 344.876 250.722 345.726 251.263C346.577 251.804 347.57 252.078 348.577 252.049C350.596 251.964 352.557 251.355 354.269 250.282C357.449 248.448 360.486 246.378 363.355 244.088C363.95 243.683 364.48 243.19 364.928 242.627C365.461 241.756 365.681 240.73 365.552 239.718C365.423 238.706 364.952 237.768 364.218 237.059C359.515 232.341 349.871 236.141 346.337 240.525Z" fill="#F3BD8F"/>
<path d="M301.724 401.297H184.447L138.93 277.284H337.027L301.724 401.297ZM189.303 394.338H296.45L327.802 284.215H148.893L189.303 394.338Z" fill="#FF8D8D"/>
<path d="M348.007 401.297H230.715L185.212 277.284H386.705L348.007 401.297ZM235.599 394.338H342.747L374.098 284.215H195.245L235.599 394.338Z" fill="#FF8D8D"/>
<path d="M348.702 401.367H293.152L318.033 313.611L338.572 249.878L394.595 250.63L348.702 401.367ZM302.35 394.407H343.553L385.299 257.464L343.665 256.907L324.657 315.629L302.35 394.407Z" fill="#FF8D8D"/>
<path d="M348.591 436.024H212.611V429.064H341.634V397.845H348.591V436.024Z" fill="#FF8D8D"/>
<path d="M303.074 436.024H192.364V429.064H296.116V397.845H303.074V436.024Z" fill="#FF8D8D"/>
<path d="M326.16 453.31C323.823 453.31 321.539 452.617 319.596 451.319C317.653 450.021 316.139 448.175 315.245 446.016C314.351 443.856 314.117 441.481 314.573 439.188C315.029 436.896 316.154 434.791 317.806 433.138C319.458 431.485 321.563 430.36 323.855 429.904C326.147 429.448 328.522 429.682 330.681 430.576C332.84 431.471 334.685 432.985 335.983 434.929C337.281 436.872 337.974 439.157 337.974 441.494C337.974 444.628 336.729 447.633 334.514 449.849C332.298 452.065 329.293 453.31 326.16 453.31V453.31ZM326.16 436.608C325.199 436.608 324.26 436.893 323.462 437.427C322.663 437.961 322.041 438.719 321.673 439.607C321.305 440.495 321.209 441.471 321.397 442.413C321.584 443.356 322.047 444.221 322.726 444.901C323.405 445.58 324.27 446.043 325.212 446.23C326.154 446.417 327.131 446.321 328.018 445.954C328.906 445.586 329.664 444.963 330.198 444.165C330.731 443.366 331.016 442.427 331.016 441.466C331.009 440.182 330.494 438.954 329.584 438.049C328.674 437.144 327.443 436.636 326.16 436.636V436.608Z" fill="#2E2E3F"/>
<path d="M241.763 453.31C239.626 453.302 237.531 452.714 235.702 451.608C233.873 450.502 232.379 448.92 231.379 447.031C230.378 445.141 229.91 443.016 230.023 440.881C230.137 438.747 230.828 436.683 232.022 434.91V434.91C233.161 433.213 234.719 431.84 236.547 430.926C238.374 430.012 240.407 429.587 242.447 429.693C244.487 429.799 246.465 430.433 248.187 431.532C249.91 432.631 251.318 434.158 252.274 435.964C253.23 437.77 253.701 439.793 253.642 441.836C253.583 443.879 252.995 445.871 251.936 447.619C250.877 449.366 249.383 450.809 247.6 451.807C245.817 452.804 243.806 453.322 241.763 453.31ZM237.742 438.793C237.205 439.591 236.917 440.529 236.915 441.49C236.912 442.451 237.194 443.392 237.725 444.192C238.257 444.993 239.014 445.618 239.9 445.988C240.787 446.358 241.764 446.457 242.706 446.272C243.649 446.086 244.516 445.626 245.197 444.948C245.878 444.27 246.342 443.405 246.532 442.463C246.721 441.521 246.627 440.544 246.261 439.655C245.896 438.767 245.274 438.007 244.477 437.471C243.407 436.758 242.098 436.496 240.837 436.744C239.575 436.992 238.462 437.728 237.742 438.793V438.793Z" fill="#2E2E3F"/>
<path d="M374.432 302.142H154.501V307.389H374.432V302.142Z" fill="#FF8D8D"/>
<path d="M368.685 319.777H159.204V325.024H368.685V319.777Z" fill="#FF8D8D"/>
<path d="M362.938 337.411H165.995V342.659H362.938V337.411Z" fill="#FF8D8D"/>
<path d="M357.19 355.046H172.785V360.293H357.19V355.046Z" fill="#FF8D8D"/>
<path d="M351.444 372.681H179.576V377.928H351.444V372.681Z" fill="#FF8D8D"/>
<path d="M168.447 279.32L163.519 281.118L205.824 397.126L210.752 395.328L168.447 279.32Z" fill="#FF8D8D"/>
<path d="M229.627 279.468L224.595 280.951L258.289 395.386L263.321 393.904L229.627 279.468Z" fill="#FF8D8D"/>
<path d="M281.065 278.559L275.822 278.735L279.736 395.515L284.979 395.339L281.065 278.559Z" fill="#FF8D8D"/>
<path d="M341.354 281.774L306.113 396.209L311.127 397.754L346.367 283.319L341.354 281.774Z" fill="#FF8D8D"/>
</g>
<defs>
<linearGradient id="paint0_linear_966_1398" x1="363.62" y1="400.963" x2="359.708" y2="538.116" gradientUnits="userSpaceOnUse">
<stop offset="0.01"/>
<stop offset="0.13" stop-opacity="0.69"/>
<stop offset="1" stop-opacity="0"/>
</linearGradient>
<linearGradient id="paint1_linear_966_1398" x1="408.663" y1="231.116" x2="396.915" y2="211.131" gradientUnits="userSpaceOnUse">
<stop offset="0.01" stop-color="#380000" stop-opacity="0.7"/>
<stop offset="0.13" stop-color="#320000" stop-opacity="0.84"/>
<stop offset="0.651042" stop-color="#FF8D8D"/>
<stop offset="1" stop-color="#FF8D8D"/>
</linearGradient>
<linearGradient id="paint2_linear_966_1398" x1="459.496" y1="278.133" x2="425.53" y2="352.841" gradientUnits="userSpaceOnUse">
<stop offset="0.01"/>
<stop offset="0.13" stop-opacity="0.69"/>
<stop offset="1" stop-opacity="0"/>
</linearGradient>
<linearGradient id="paint3_linear_966_1398" x1="463.865" y1="312.971" x2="480.702" y2="312.971" gradientUnits="userSpaceOnUse">
<stop offset="0.01"/>
<stop offset="0.13" stop-opacity="0.69"/>
<stop offset="1" stop-opacity="0"/>
</linearGradient>
<linearGradient id="paint4_linear_966_1398" x1="423.399" y1="321.572" x2="457.136" y2="351.573" gradientUnits="userSpaceOnUse">
<stop offset="0.01"/>
<stop offset="0.13" stop-opacity="0.69"/>
<stop offset="1" stop-opacity="0"/>
</linearGradient>
<linearGradient id="paint5_linear_966_1398" x1="533.316" y1="233.343" x2="375.391" y2="224.453" gradientUnits="userSpaceOnUse">
<stop offset="0.01"/>
<stop offset="0.13" stop-opacity="0.69"/>
<stop offset="1" stop-opacity="0"/>
</linearGradient>
<linearGradient id="paint6_linear_966_1398" x1="397.378" y1="451.626" x2="426.795" y2="451.626" gradientUnits="userSpaceOnUse">
<stop offset="0.01"/>
<stop offset="0.13" stop-opacity="0.69"/>
<stop offset="1" stop-opacity="0"/>
</linearGradient>
<linearGradient id="paint7_linear_966_1398" x1="489.08" y1="450.624" x2="507.935" y2="450.624" gradientUnits="userSpaceOnUse">
<stop offset="0.01"/>
<stop offset="0.13" stop-opacity="0.69"/>
<stop offset="1" stop-opacity="0"/>
</linearGradient>
<linearGradient id="paint8_linear_966_1398" x1="464.129" y1="258.814" x2="439.434" y2="211.009" gradientUnits="userSpaceOnUse">
<stop offset="0.01"/>
<stop offset="0.13" stop-color="#B55858"/>
<stop offset="1" stop-color="#FF8D8D"/>
</linearGradient>
<clipPath id="clip0_966_1398">
<rect width="711" height="536" fill="white"/>
</clipPath>
</defs>
</svg>
