<svg id="Layer_1" data-name="Layer 1" xmlns="http://www.w3.org/2000/svg" viewBox="0 0 48.3657 24.22538"><defs><style>.cls-1{fill:#f48b8d;}.cls-2{fill:#f4f6f9;}</style></defs><path class="cls-1" d="M13.3312,14.11579a11.668,11.668,0,0,0-3.15553.73017,2.35054,2.35054,0,0,1-.48946.14993.46823.46823,0,0,1-.2024-.06577.19491.19491,0,0,1-.0844-.12164.45649.45649,0,0,1,.211-.337.63779.63779,0,0,1,.37953-.16831,1.48642,1.48642,0,0,0,.30372-.0937,13.51262,13.51262,0,0,1,3.3582-.82388A30.505,30.505,0,0,1,17.91264,6.028,15.31976,15.31976,0,0,1,23.05128,1.7598,7.25586,7.25586,0,0,0,20.94185.89844,11.18993,11.18993,0,0,0,18.32631.61769a16.8324,16.8324,0,0,0-5.08784.82388A17.21681,17.21681,0,0,0,8.53876,3.72542,12.1597,12.1597,0,0,0,5.341,6.777a5.68654,5.68654,0,0,0-1.12215,3.23892,2.68347,2.68347,0,0,0,.62439,1.8815,2.2138,2.2138,0,0,0,1.7213.6835,5.64732,5.64732,0,0,0,3.69552-1.85354,13.05622,13.05622,0,0,0,3.12167-4.66178,10.88,10.88,0,0,0,.56553-1.93769q.21086-1.05723.36286-1.05759.21893,0,.30373.2903a7.9341,7.9341,0,0,1,.08439,1.5445,9.47138,9.47138,0,0,1-1.99976,6.26213,6.3624,6.3624,0,0,1-5.1217,2.40585,4.07751,4.07751,0,0,1-2.82654-.94551,3.23738,3.23738,0,0,1-1.05444-2.5367,6.32667,6.32667,0,0,1,.869-3.07025A10.31923,10.31923,0,0,1,6.98626,4.13738,17.63046,17.63046,0,0,1,18.32631,0a11.30351,11.30351,0,0,1,2.8432.32742,9.93669,9.93669,0,0,1,2.50616,1.058A12.43526,12.43526,0,0,1,25.43056.75814,5.32676,5.32676,0,0,1,26.71294.5428a.321.321,0,0,1,.20266.06578C26.97178.65231,27,.69273,27,.73021q0,.18741-.91978.3649a7.518,7.518,0,0,0-1.8479.62728,5.22719,5.22719,0,0,1,1.91536,1.92814A5.16374,5.16374,0,0,1,26.8312,6.253a5.9817,5.9817,0,0,1-2.59888,4.75512,12.67032,12.67032,0,0,1-6.6992,2.49A16.55126,16.55126,0,0,1,12.69848,21.361,11.04134,11.04134,0,0,1,5.265,24.22538a5.94868,5.94868,0,0,1-3.82212-1.1513A3.68189,3.68189,0,0,1,0,20.0505a3.58374,3.58374,0,0,1,.84372-2.43378,2.62683,2.62683,0,0,1,2.05889-.97344,1.79454,1.79454,0,0,1,1.36677.53357,1.96839,1.96839,0,0,1,.50639,1.41331,1.573,1.573,0,0,1-.39672,1.15167A2.71584,2.71584,0,0,1,3.00394,20.35l-.03386.01874q-1.33332.31865-1.33318,1.06714a1.91108,1.91108,0,0,0,1.00418,1.48827,3.97369,3.97369,0,0,0,2.33709.70225,5.84773,5.84773,0,0,0,4.42958-2.26548A24.62688,24.62688,0,0,0,13.3312,14.11579Zm4.4718-1.27293a6.7991,6.7991,0,0,0,4.59-2.78031,8.59964,8.59964,0,0,0,1.90676-5.41988A4.58008,4.58008,0,0,0,24.089,3.1544a2.99671,2.99671,0,0,0-.64966-1.07633,7.00751,7.00751,0,0,0-2.776,3.17314A46.33169,46.33169,0,0,0,17.803,12.84286Z"/><path class="cls-2" d="M19.83036,19.45254c-.2469.19488-1.07844.8706-1.37724.8706-.36376,0-1.11739-.85755-1.1434-1.53316-.0519-1.62414,3.32618-3.28722,4.83345-3.32618a.79793.79793,0,0,1,.84449.6236c0,.15593-.33786.28585-.45473.32481a.52047.52047,0,0,1,.37671.53274c0,.41578-1.13034,1.32523-1.13034,1.93588,0,.22089.19488.31186.40282.31186.5457,0,1.28627-.66256,1.84492-1.03937l.104.48073c-.55875.63666-2.29975,2.02685-2.93641,2.02685a.6111.6111,0,0,1-.62371-.68857,4.36625,4.36625,0,0,1,.48073-1.45525l-.0259-.026Zm-1.57212-.33776c.013.065.065.2988.25984.25985.25985-.052.66267-.013,3.23521-2.61161l-.02589-.026C18.63506,17.68553,18.25824,18.47812,18.25824,19.11478Z"/><path class="cls-2" d="M24.95043,17.51666a9.18235,9.18235,0,0,1-1.55906,1.61107l-.052-.5717a4.57133,4.57133,0,0,0,.85755-.94841c-.2729-.026-.35081-.12992-.35081-.40282,0-.93546,1.32522-1.87092,1.63708-1.87092a.23044.23044,0,0,1,.23384.22078.88619.88619,0,0,1-.09086.36387c1.22131-.16888,1.93588-.32481,2.0658-.16888a1.3025,1.3025,0,0,1,.31186.68856c0,.40283-.2469.59771-.5457.84461-.37681.3248-1.01348.96146-1.01348,1.48115a.39812.39812,0,0,0,.40283.36376c.55864,0,1.37724-.84449,1.806-1.1693l.091.48074C28.2508,18.99781,26.75659,20.44,26.016,20.44a.945.945,0,0,1-.88355-1.00042,3.69678,3.69678,0,0,1,1.1953-2.19584l-.02589-.026Z"/><path class="cls-2" d="M33.07144,14.91811c-.61066,1.23425-.71457,1.715-2.14383,1.624a5.03418,5.03418,0,0,0-1.18235,2.41672c0,.28585.091.45473.38976.45473.41578,0,.88356-.38976,2.23479-1.35123l.065.5717c-.76658.70162-2.16982,2.09181-3.27416,2.09181a.79214.79214,0,0,1-.8186-.8705,3.43489,3.43489,0,0,1,.33787-1.29933l-.026-.0259-.66267.53264-.14287-.49368a7.50156,7.50156,0,0,0,1.97484-2.07886,4.70509,4.70509,0,0,0-1.23426.0519l.14287-.23384c.70162-1.1434.80554-1.35123,2.19583-1.40324.38977-.53264.67562-1.1434,1.42926-1.1434.16887,0,.41577.03906.41577.24689,0,.23384-.37682.66267-.50674.84461Z"/><path class="cls-2" d="M36.02135,18.647c-.58476.71468-1.728,1.884-2.71552,1.884-.76659,0-1.1174-.88356-1.1174-1.54612,0-1.58518,1.624-3.13129,2.40367-3.13129.22089,0,.5717.07791.5717.36376,0,.64972-1.28627,1.80606-1.83208,2.18277-.10391.53275.091.8186.68868.8186.68867,0,1.36429-.68857,1.884-1.06538ZM34.774,15.035a1.17137,1.17137,0,0,1,1.13034-1.00042.41086.41086,0,0,1,.4284.39254l.00032.01028a1.19928,1.19928,0,0,1-1.03937,1.15635.523.523,0,0,1-.52095-.52493L34.774,15.035Z"/><path class="cls-2" d="M42.05043,17.76355l.10392.57159c-.68857.61077-2.02685,2.20878-2.97537,2.20878a.76057.76057,0,0,1-.7333-.78689q.00125-.0354.00578-.07055a4.67567,4.67567,0,0,1,1.1174-2.23479l-.026-.026a10.35307,10.35307,0,0,0-2.001,1.98789c-.19488.2469-.67562.88356-1.02643.88356-.5717,0-.71456-.8186-.72763-1.26038a4.39145,4.39145,0,0,1,1.5332-2.84544.64551.64551,0,0,1,.50674-.15582c.77953.0259.71457.20783.71457.28574,0,.50674-1.63708,1.819-1.63708,2.13087a.14422.14422,0,0,0,.143.143c.091,0,.20783-.117.25984-.18194A11.47658,11.47658,0,0,1,41.115,15.4897c.0519,0,.12992.065.20783.24689a3.01993,3.01993,0,0,1,.19489.70162c0,.50674-1.598,1.49422-1.598,2.39072a.24147.24147,0,0,0,.23384.23384,2.72,2.72,0,0,0,1.11739-.64961Z"/><path class="cls-2" d="M44.065,19.45254c-.24679.19488-1.07833.8706-1.37724.8706-.36376,0-1.1174-.85755-1.1434-1.53316-.05191-1.62414,3.32617-3.28722,4.83344-3.32618a.79792.79792,0,0,1,.8445.6236c0,.15593-.33787.28585-.45473.32481a.52057.52057,0,0,1,.37682.53274c0,.41578-1.13046,1.32523-1.13046,1.93588,0,.22089.19489.31186.40283.31186.54569,0,1.28627-.66256,1.84491-1.03937l.104.48073c-.55876.63666-2.29975,2.02685-2.93641,2.02685a.61111.61111,0,0,1-.62372-.68857,4.366,4.366,0,0,1,.48074-1.45525l-.0259-.026Zm-1.57213-.33776c.01295.065.065.2988.25985.25985.25984-.052.66267-.013,3.23521-2.61161l-.0259-.026C42.86969,17.68553,42.49287,18.47812,42.49287,19.11478Z"/></svg>