<svg id="Layer_1" data-name="Layer 1" xmlns="http://www.w3.org/2000/svg" viewBox="0 0 512.66937 285.39545"><defs><style>.cls-1{fill:#f58c8e;}.cls-2{fill:#fff;}</style></defs><path class="cls-1" d="M174.3344,417.63965a137.457,137.457,0,0,0-37.17489,8.602,27.69321,27.69321,0,0,1-5.76622,1.76629,5.51452,5.51452,0,0,1-2.38439-.77492,2.29561,2.29561,0,0,1-.99428-1.433q0-1.98059,2.48571-3.96984a7.51359,7.51359,0,0,1,4.47112-1.98275,17.50805,17.50805,0,0,0,3.57816-1.10394,159.188,159.188,0,0,1,39.56245-9.706q22.06744-52.0473,50.1956-86.67841,28.1329-34.61813,60.53744-50.28318a85.47791,85.47791,0,0,0-24.85081-10.14755,131.824,131.824,0,0,0-30.81336-3.30747,198.299,198.299,0,0,0-59.939,9.706,202.81869,202.81869,0,0,0-55.36653,26.90572Q93.4236,311.99952,80.2034,331.182,66.98,350.371,66.9832,369.33923q0,14.11738,7.35581,22.16529,7.35265,8.05224,20.27837,8.05223,20.27678,0,43.53642-21.83627,23.25963-21.83195,36.77591-54.91971a128.18978,128.18978,0,0,0,6.66235-22.82765q2.48414-12.455,4.27479-12.45932,2.57913,0,3.57817,3.42.9927,3.42219.99428,18.19545,0,45.43668-23.55887,73.77319-23.55888,28.34517-60.338,28.343-20.87049,0-33.29907-11.13892Q60.818,388.9698,60.82116,370.22238q0-17.64349,10.23734-36.17012,10.23576-18.52663,28.52714-33.96658a207.702,207.702,0,0,1,133.59529-48.742,133.16546,133.16546,0,0,1,33.4954,3.85728,117.06249,117.06249,0,0,1,29.52459,12.46365,146.51445,146.51445,0,0,1,20.67418-7.38987q9.5423-2.53257,15.10744-2.53689a3.78192,3.78192,0,0,1,2.38756.77492c.6618.51517.99428.99138.99428,1.433q0,2.20786-10.83581,4.29885a88.56375,88.56375,0,0,0-21.7698,7.38988,61.58058,61.58058,0,0,1,22.56459,22.71509,60.83347,60.83347,0,0,1,8.05245,30.6591q0,31.76088-30.617,56.01932-30.617,24.26709-78.92223,29.33437-18.09189,58.88522-56.95611,92.631-38.8674,33.748-87.57316,33.74579-28.0284,0-45.02785-13.56325-16.99469-13.56543-16.99785-35.62032,0-17.20191,9.93969-28.672,9.94128-11.46144,24.25551-11.46794,10.136,0,16.10173,6.28594t5.96572,16.64994q0,8.825-4.67378,13.56759-4.67378,4.74042-16.19989,7.16475l-.399.22079q-15.7075,3.75339-15.70592,12.57188,0,9.26657,11.8301,17.53309,11.82219,8.273,27.53285,8.273,28.62688,0,52.18418-26.68926Q151.67165,476.31058,174.3344,417.63965Zm52.68132-14.99621q31.60974-3.96766,54.07459-32.75441,22.46167-28.78024,22.46326-63.85076a53.95185,53.95185,0,0,0-2.48255-17.53309,35.30337,35.30337,0,0,0-7.65347-12.68011q-17.49816,8.59771-32.70377,37.38229Q245.505,341.9941,227.01572,402.64344Z" transform="translate(-17.28157 -251.34368)"/><path class="cls-2" d="M247.601,479.61829c-2.443,1.92831-10.6709,8.61446-13.62743,8.61446-3.5993,0-11.05634-8.48525-11.31366-15.1703-.51357-16.0704,32.91168-32.52624,47.82575-32.91169,5.91306-.12921,8.356,4.62753,8.356,6.1704s-3.34307,2.82841-4.4994,3.21386c2.44188,1.02931,3.72742,2.443,3.72742,5.27139,0,4.114-11.18445,13.11277-11.18445,19.155,0,2.18565,1.92831,3.08575,3.98584,3.08575,5.3995,0,12.72733-6.55584,18.255-10.28436l1.02931,4.75674c-5.52872,6.2996-22.75545,20.05514-29.055,20.05514-4.24318,0-6.17149-3.08574-6.17149-6.81316,0-4.114,3.08574-10.92822,4.75673-14.39941l-.25623-.25733Zm-15.55575-3.342c.12812.64277.64278,2.95653,2.57109,2.57109,2.57109-.51466,6.55694-.12812,32.01159-25.84119l-.25624-.25733C235.77374,462.13423,232.04522,469.9767,232.04522,476.27631Z" transform="translate(-17.28157 -251.34368)"/><path class="cls-2" d="M298.2628,460.46324c-4.49941,7.07049-9.89891,10.41356-15.42653,15.94119l-.51466-5.65684a45.23168,45.23168,0,0,0,8.48525-9.38425c-2.7003-.25733-3.47119-1.28555-3.47119-3.98585,0-9.25613,13.11277-18.51227,16.19852-18.51227a2.28014,2.28014,0,0,1,2.31376,2.18455,8.76749,8.76749,0,0,1-.899,3.6004c12.08456-1.671,19.15505-3.21386,20.44059-1.671a12.88729,12.88729,0,0,1,3.08575,6.81317c0,3.98584-2.443,5.91416-5.39951,8.35713-3.72851,3.21386-10.02812,9.51346-10.02812,14.65564,0,2.05643,2.05753,3.59931,3.98585,3.59931,5.52762,0,13.62742-8.356,17.8695-11.5699l.9001,4.75673c-4.88485,5.52762-19.6697,19.79782-26.99752,19.79782-5.39951,0-8.74258-5.01406-8.74258-9.89891,0-8.74258,6.685-15.55574,11.82722-21.72723l-.25623-.25733Z" transform="translate(-17.28157 -251.34368)"/><path class="cls-2" d="M378.61807,434.75126c-6.04227,12.21267-7.07049,16.9694-21.21257,16.0693-4.37129,5.65683-11.69911,16.19961-11.69911,23.91288,0,2.82841.9001,4.4994,3.85663,4.4994,4.114,0,8.74258-3.85663,22.11268-13.3701l.64277,5.65684c-7.58515,6.94237-21.4699,20.69792-32.397,20.69792-5.01406,0-8.0998-3.47119-8.0998-8.61337,0-4.24208,1.671-9.128,3.34307-12.85654l-.25733-.25623-6.55693,5.27029-1.41366-4.88485c7.71326-5.91416,14.78375-12.47109,19.54049-20.5698-7.84138,0-5.39951-.51465-12.21267.51356l1.41366-2.31376c6.94237-11.31366,7.97059-13.3701,21.72723-13.88475,3.85663-5.2703,6.685-11.31367,14.14208-11.31367,1.671,0,4.114.38654,4.114,2.443,0,2.31377-3.72852,6.55694-5.01406,8.35714Z" transform="translate(-17.28157 -251.34368)"/><path class="cls-2" d="M407.80672,471.64769c-5.786,7.07159-17.09862,18.64149-26.86941,18.64149-7.58515,0-11.05634-8.74258-11.05634-15.29842,0-15.685,16.0693-30.98336,23.78367-30.98336,2.18564,0,5.65683.77089,5.65683,3.5993,0,6.42882-12.72733,17.8706-18.12793,21.598-1.02821,5.27139.9001,8.09981,6.81426,8.09981,6.81426,0,13.49931-6.81317,18.64149-10.54169Zm-12.34188-35.7401c0-5.27029,6.17039-9.89891,11.18445-9.89891a4.06538,4.06538,0,0,1,4.24208,3.98585c0,5.14217-4.75674,11.44178-10.28436,11.44178C397.52127,441.43631,395.46484,438.99334,395.46484,435.90759Z" transform="translate(-17.28157 -251.34368)"/><path class="cls-2" d="M467.463,462.90621l1.02821,5.65574c-6.81316,6.04337-20.05514,21.85535-29.44049,21.85535-4.88485,0-7.19861-4.11287-7.19861-8.48416,0-7.71436,6.94238-16.19961,11.05634-22.11267l-.25733-.25733a102.4336,102.4336,0,0,0-19.79892,19.6697c-1.92831,2.443-6.685,8.74258-10.15623,8.74258-5.65684,0-7.0705-8.09981-7.19971-12.47109-.38544-8.8707,7.71436-21.85535,15.1703-28.155,1.67208-1.41366,2.82842-1.54177,5.01406-1.54177,7.71327.25623,7.07049,2.05643,7.07049,2.82732,0,5.01406-16.19851,17.99871-16.19851,21.08446a1.42692,1.42692,0,0,0,1.41475,1.41475c.9001,0,2.05644-1.15743,2.57109-1.8002,10.28436-13.11386,33.9399-28.92693,37.66842-28.92693.51356,0,1.28554.64277,2.05643,2.443a29.87714,29.87714,0,0,1,1.92832,6.94238c0,5.01406-15.812,14.78485-15.812,23.65554a2.3893,2.3893,0,0,0,2.31377,2.31376c3.08574,0,8.74148-4.4994,11.05633-6.42772Z" transform="translate(-17.28157 -251.34368)"/><path class="cls-2" d="M487.39658,479.61829c-2.44188,1.92831-10.6698,8.61446-13.62743,8.61446-3.5993,0-11.05633-8.48525-11.31366-15.1703-.51356-16.0704,32.91168-32.52624,47.82575-32.91169,5.91306-.12921,8.356,4.62753,8.356,6.1704s-3.34308,2.82841-4.49941,3.21386c2.44188,1.02931,3.72852,2.443,3.72852,5.27139,0,4.114-11.18555,13.11277-11.18555,19.155,0,2.18565,1.92831,3.08575,3.98584,3.08575,5.39951,0,12.72733-6.55584,18.255-10.28436l1.02931,4.75674c-5.52872,6.2996-22.75545,20.05514-29.055,20.05514-4.24317,0-6.17149-3.08574-6.17149-6.81316,0-4.114,3.08574-10.92822,4.75673-14.39941l-.25623-.25733Zm-15.55574-3.342c.12811.64277.64277,2.95653,2.57109,2.57109,2.57108-.51466,6.55693-.12812,32.01158-25.84119l-.25623-.25733C475.56935,462.13423,471.84084,469.9767,471.84084,476.27631Z" transform="translate(-17.28157 -251.34368)"/></svg>