<svg id="Layer_1" data-name="Layer 1" xmlns="http://www.w3.org/2000/svg" viewBox="0 0 48.3657 24.22538"><defs><style>.cls-1{fill:#f48b8d;}.cls-2{fill:#3f4551;}</style></defs><path class="cls-1" d="M18.3312,23.89041a11.66811,11.66811,0,0,0-3.15553.73017,2.35037,2.35037,0,0,1-.48946.14993.46813.46813,0,0,1-.2024-.06577.1949.1949,0,0,1-.0844-.12164.45648.45648,0,0,1,.211-.337.6378.6378,0,0,1,.37953-.16831,1.48616,1.48616,0,0,0,.30372-.0937,13.51255,13.51255,0,0,1,3.3582-.82388,30.50509,30.50509,0,0,1,4.26078-7.35757,15.3197,15.3197,0,0,1,5.13864-4.26822,7.25592,7.25592,0,0,0-2.10943-.86136,11.18989,11.18989,0,0,0-2.61554-.28075,16.8325,16.8325,0,0,0-5.08784.82388,17.21653,17.21653,0,0,0-4.69971,2.28385A12.15985,12.15985,0,0,0,10.341,16.55158,5.68656,5.68656,0,0,0,9.21885,19.7905,2.6835,2.6835,0,0,0,9.84324,21.672a2.21378,2.21378,0,0,0,1.7213.6835,5.64733,5.64733,0,0,0,3.69552-1.85354,13.05628,13.05628,0,0,0,3.12167-4.66178,10.88026,10.88026,0,0,0,.56553-1.93769q.21086-1.05723.36286-1.05759.21892,0,.30373.2903a7.93382,7.93382,0,0,1,.08439,1.5445,9.47139,9.47139,0,0,1-1.99976,6.26213,6.36243,6.36243,0,0,1-5.1217,2.40585,4.07751,4.07751,0,0,1-2.82654-.94551A3.23741,3.23741,0,0,1,8.6958,19.86547a6.3267,6.3267,0,0,1,.869-3.07025A10.31936,10.31936,0,0,1,11.98626,13.912,17.63049,17.63049,0,0,1,23.32631,9.77462a11.30347,11.30347,0,0,1,2.8432.32742,9.93653,9.93653,0,0,1,2.50616,1.058,12.43526,12.43526,0,0,1,1.75489-.62728,5.32667,5.32667,0,0,1,1.28238-.21534.321.321,0,0,1,.20266.06578c.05618.04373.0844.08415.0844.12163q0,.18741-.91978.3649a7.51787,7.51787,0,0,0-1.8479.62728,5.22721,5.22721,0,0,1,1.91536,1.92814,5.16377,5.16377,0,0,1,.68352,2.60245,5.98169,5.98169,0,0,1-2.59888,4.75512,12.67024,12.67024,0,0,1-6.6992,2.49,16.55122,16.55122,0,0,1-4.83464,7.86285A11.04131,11.04131,0,0,1,10.265,34a5.94872,5.94872,0,0,1-3.82212-1.1513A3.68189,3.68189,0,0,1,5,29.82512a3.58377,3.58377,0,0,1,.84372-2.43378,2.62684,2.62684,0,0,1,2.05889-.97344,1.79455,1.79455,0,0,1,1.36677.53357,1.96836,1.96836,0,0,1,.50639,1.41331,1.573,1.573,0,0,1-.39672,1.15167,2.71585,2.71585,0,0,1-1.37511.60817l-.03386.01874Q6.63676,30.462,6.6369,31.2105a1.91107,1.91107,0,0,0,1.00418,1.48827,3.97374,3.97374,0,0,0,2.33709.70225,5.84776,5.84776,0,0,0,4.42958-2.26548A24.62689,24.62689,0,0,0,18.3312,23.89041ZM22.803,22.61748a6.79912,6.79912,0,0,0,4.59-2.78031,8.59963,8.59963,0,0,0,1.90676-5.41988,4.57975,4.57975,0,0,0-.21072-1.48827,2.99675,2.99675,0,0,0-.64966-1.07633,7.00752,7.00752,0,0,0-2.776,3.17314A46.33178,46.33178,0,0,0,22.803,22.61748Z" transform="translate(-5 -9.77462)"/><path class="cls-2" d="M24.83036,29.22716c-.2469.19488-1.07844.8706-1.37724.8706-.36376,0-1.11739-.85755-1.1434-1.53316-.0519-1.62414,3.32618-3.28722,4.83345-3.32618a.79793.79793,0,0,1,.84449.6236c0,.15593-.33786.28585-.45473.32481a.52047.52047,0,0,1,.37671.53274c0,.41578-1.13034,1.32523-1.13034,1.93588,0,.22089.19488.31186.40282.31186.5457,0,1.28627-.66256,1.84492-1.03937l.104.48073c-.55875.63666-2.29975,2.02685-2.93641,2.02685a.61111.61111,0,0,1-.62371-.68857,4.3659,4.3659,0,0,1,.48073-1.45525l-.0259-.026Zm-1.57212-.33776c.013.065.065.2988.25984.25985.25985-.052.66267-.013,3.23521-2.61161l-.02589-.026C23.63506,27.46015,23.25824,28.25274,23.25824,28.8894Z" transform="translate(-5 -9.77462)"/><path class="cls-2" d="M29.95043,27.29128a9.18226,9.18226,0,0,1-1.55906,1.61107l-.052-.5717a4.57151,4.57151,0,0,0,.85755-.94841c-.2729-.026-.35081-.12992-.35081-.40282,0-.93546,1.32522-1.87092,1.63708-1.87092a.23044.23044,0,0,1,.23384.22078.88615.88615,0,0,1-.09086.36387c1.22131-.16888,1.93588-.32481,2.0658-.16888a1.30252,1.30252,0,0,1,.31186.68856c0,.40283-.2469.59771-.5457.84461-.37681.3248-1.01348.96146-1.01348,1.48115a.39812.39812,0,0,0,.40283.36376c.55864,0,1.37724-.84449,1.806-1.1693l.091.48074c-.49368.55864-1.98789,2.00084-2.72847,2.00084a.945.945,0,0,1-.88355-1.00042,3.69679,3.69679,0,0,1,1.1953-2.19584l-.02589-.026Z" transform="translate(-5 -9.77462)"/><path class="cls-2" d="M38.07144,24.69273c-.61066,1.23425-.71457,1.715-2.14383,1.624a5.03423,5.03423,0,0,0-1.18235,2.41672c0,.28585.091.45473.38976.45473.41578,0,.88356-.38976,2.23479-1.35123l.065.5717c-.76658.70162-2.16982,2.09181-3.27416,2.09181a.79214.79214,0,0,1-.8186-.8705,3.43488,3.43488,0,0,1,.33787-1.29933l-.026-.0259-.66267.53264-.14287-.49368a7.50152,7.50152,0,0,0,1.97484-2.07886,4.705,4.705,0,0,0-1.23426.0519l.14287-.23384c.70162-1.1434.80554-1.35123,2.19583-1.40324.38977-.53264.67562-1.1434,1.42926-1.1434.16887,0,.41577.03906.41577.24689,0,.23384-.37682.66267-.50674.84461Z" transform="translate(-5 -9.77462)"/><path class="cls-2" d="M41.02135,28.42162c-.58476.71468-1.728,1.884-2.71552,1.884-.76659,0-1.1174-.88356-1.1174-1.54612,0-1.58518,1.624-3.13129,2.40367-3.13129.22089,0,.5717.07791.5717.36376,0,.64972-1.28627,1.80606-1.83208,2.18277-.10391.53275.091.8186.68868.8186.68867,0,1.36429-.68857,1.884-1.06538Zm-1.24732-3.612a1.17137,1.17137,0,0,1,1.13034-1.00042.41086.41086,0,0,1,.42872.40282,1.19928,1.19928,0,0,1-1.03937,1.15635A.52294.52294,0,0,1,39.774,24.80959Z" transform="translate(-5 -9.77462)"/><path class="cls-2" d="M47.05043,27.53817l.10392.57159c-.68857.61077-2.02685,2.20878-2.97537,2.20878a.76057.76057,0,0,1-.72752-.85744,4.6756,4.6756,0,0,1,1.1174-2.23479l-.026-.026a10.35257,10.35257,0,0,0-2.001,1.98789c-.19488.2469-.67562.88356-1.02643.88356-.5717,0-.71457-.8186-.72763-1.26038A4.39144,4.39144,0,0,1,42.321,25.96594a.64553.64553,0,0,1,.50674-.15582c.77953.0259.71457.20783.71457.28574,0,.50674-1.63708,1.819-1.63708,2.13087a.14422.14422,0,0,0,.143.143c.091,0,.20783-.117.25984-.18194A11.47662,11.47662,0,0,1,46.115,25.26432c.0519,0,.12992.065.20783.24689a3.01989,3.01989,0,0,1,.19489.70162c0,.50674-1.598,1.49422-1.598,2.39072a.24147.24147,0,0,0,.23384.23384,2.72,2.72,0,0,0,1.11739-.64961Z" transform="translate(-5 -9.77462)"/><path class="cls-2" d="M49.065,29.22716c-.24679.19488-1.07833.8706-1.37724.8706-.36376,0-1.1174-.85755-1.1434-1.53316-.05191-1.62414,3.32617-3.28722,4.83344-3.32618a.79793.79793,0,0,1,.8445.6236c0,.15593-.33787.28585-.45473.32481a.52057.52057,0,0,1,.37682.53274c0,.41578-1.13046,1.32523-1.13046,1.93588,0,.22089.19489.31186.40283.31186.54569,0,1.28627-.66256,1.84491-1.03937l.104.48073c-.55876.63666-2.29975,2.02685-2.93641,2.02685a.61112.61112,0,0,1-.62372-.68857,4.36592,4.36592,0,0,1,.48074-1.45525l-.0259-.026Zm-1.57213-.33776c.01295.065.065.2988.25985.25985.25984-.052.66267-.013,3.23521-2.61161l-.0259-.026C47.86969,27.46015,47.49287,28.25274,47.49287,28.8894Z" transform="translate(-5 -9.77462)"/></svg>