<svg id="Layer_1" data-name="Layer 1" xmlns="http://www.w3.org/2000/svg" viewBox="0 0 612 792"><defs><style>.cls-1{fill:#f58c8e;}.cls-2{fill:#f8f7f7;}</style></defs><path class="cls-1" d="M155.88525,431.63038a121.31,121.31,0,0,0-32.80792,7.59155,24.43978,24.43978,0,0,1-5.08886,1.55881,4.86677,4.86677,0,0,1-2.10429-.68389,2.026,2.026,0,0,1-.87749-1.26462q0-1.74792,2.19372-3.5035a6.631,6.631,0,0,1,3.94589-1.74984,15.45144,15.45144,0,0,0,3.15783-.97425,140.48743,140.48743,0,0,1,34.915-8.5658q19.47516-45.93327,44.29908-76.49622,24.8281-30.55149,53.426-44.37636a75.43648,75.43648,0,0,0-21.93156-8.9555,116.33837,116.33837,0,0,0-27.19369-2.91895,175.00455,175.00455,0,0,0-52.89788,8.56581,178.9932,178.9932,0,0,0-48.86256,23.74507Q84.47912,338.39991,72.81191,355.329q-11.67,16.93485-11.66721,33.67484,0,12.459,6.49172,19.56151,6.48893,7.10634,17.89624,7.10633,17.89485,0,38.42216-19.27114,20.5273-19.26733,32.4558-48.46823a113.1304,113.1304,0,0,0,5.87972-20.14607q2.19233-10.9919,3.77263-10.99571,2.27616,0,3.15783,3.01828.87609,3.02019.87749,16.058,0,40.09919-20.79139,65.107-20.7914,25.01542-53.25,25.01352-18.41883,0-29.3874-9.83043-10.96579-9.82851-10.963-26.37365,0-15.5709,9.03475-31.92118a107.28971,107.28971,0,0,1,25.176-29.97649A183.30291,183.30291,0,0,1,207.819,284.86937a117.5224,117.5224,0,0,1,29.56067,3.40416,103.31114,103.31114,0,0,1,26.0563,10.99953,129.30413,129.30413,0,0,1,18.24557-6.52178,55.38367,55.38367,0,0,1,13.33276-2.23887,3.33757,3.33757,0,0,1,2.10708.68389c.58406.45465.87749.87492.87749,1.26462q0,1.94852-9.56292,3.79386a78.16017,78.16017,0,0,0-19.21248,6.52178,54.34671,54.34671,0,0,1,19.91391,20.04673,53.68743,53.68743,0,0,1,7.10651,27.05755q0,28.02989-27.02042,49.43866-27.02043,21.41641-69.65116,25.88844-15.96661,51.96792-50.26542,81.74955Q115.00529,536.741,72.02105,536.73913q-24.73589,0-39.73838-11.97-14.99831-11.97188-15.0011-31.436,0-15.18118,8.77207-25.30388,8.77345-10.11507,21.40619-10.12079,8.94533,0,14.21024,5.54752T66.935,478.15011q0,7.7883-4.12475,11.97378-4.12475,4.18357-14.29687,6.32311l-.35211.19485q-13.86232,3.31247-13.86093,11.09505,0,8.178,10.44041,15.47346a41.315,41.315,0,0,0,24.29854,7.30118q25.264,0,46.054-23.554Q135.88472,483.40917,155.88525,431.63038ZM202.378,418.3958q27.89652-3.50158,47.72239-28.90672,19.82308-25.39941,19.82448-56.35015a47.614,47.614,0,0,0-2.19092-15.47346,31.15611,31.15611,0,0,0-6.75441-11.19056q-15.44263,7.58772-28.862,32.991Q218.69537,364.871,202.378,418.3958Z"/><path class="cls-2" d="M219.656,493.45368c-2.08337,1.64448-9.10017,7.34645-11.62152,7.34645-3.0695,0-9.42888-7.23625-9.64833-12.93729-.438-13.70489,28.06721-27.7385,40.786-28.06721,5.04268-.11019,7.12606,3.94637,7.12606,5.26214s-2.851,2.41208-3.83711,2.74079c2.08244.8778,3.17876,2.08338,3.17876,4.49546,0,3.5084-9.53815,11.18262-9.53815,16.3355,0,1.86392,1.64448,2.63153,3.39914,2.63153,4.60472,0,10.85392-5.59084,15.56789-8.77054l.8778,4.05656c-4.71491,5.37233-19.40593,17.10311-24.77825,17.10311-3.6186,0-5.26307-2.63154-5.26307-5.81029,0-3.50841,2.63153-9.31963,4.05656-12.27988l-.21852-.21945Zm-13.266-2.85005c.10926.54816.54816,2.52135,2.19263,2.19264,2.19264-.4389,5.59178-.10926,27.2996-22.03747l-.21851-.21945C209.56969,478.54321,206.39,485.23131,206.39,490.60363Z"/><path class="cls-2" d="M262.86059,477.11819c-3.83711,6.02974-8.44182,8.88073-13.1558,13.5947l-.4389-4.82417a38.57383,38.57383,0,0,0,7.23625-8.00292c-2.30282-.21945-2.96024-1.09632-2.96024-3.39915,0-7.89367,11.18262-15.78733,13.81415-15.78733a1.94451,1.94451,0,0,1,1.97319,1.863,7.47687,7.47687,0,0,1-.76668,3.07043c10.30575-1.425,16.3355-2.74079,17.43181-1.425a10.99029,10.99029,0,0,1,2.63154,5.81029c0,3.39914-2.08338,5.04362-4.60472,7.127-3.17969,2.7408-8.552,8.11312-8.552,12.49839a3.35942,3.35942,0,0,0,3.39914,3.0695c4.714,0,11.62152-7.12606,15.23918-9.86685l.76761,4.05656c-4.16582,4.714-16.77439,16.88365-23.02359,16.88365-4.60472,0-7.4557-4.276-7.4557-8.44182,0-7.45571,5.701-13.266,10.0863-18.52907l-.21851-.21945Z"/><path class="cls-2" d="M331.38787,455.19092c-5.15287,10.415-6.02974,14.47157-18.09016,13.704-3.72785,4.82416-9.97705,13.81508-9.97705,20.393,0,2.41208.76761,3.83711,3.289,3.83711,3.5084,0,7.4557-3.289,18.85777-11.40207l.54816,4.82416c-6.46865,5.92049-18.30962,17.65127-27.62831,17.65127-4.276,0-6.90755-2.96025-6.90755-7.34551,0-3.61766,1.425-7.78441,2.851-10.96411l-.21945-.21851-5.59178,4.49452-1.20557-4.16581c6.5779-5.04362,12.60764-10.6354,16.6642-17.542-6.68716,0-4.60472-.4389-10.415.438l1.20558-1.97319c5.92048-9.64833,6.79735-11.40207,18.52906-11.841,3.289-4.49452,5.701-9.64833,12.06042-9.64833,1.425,0,3.5084.32964,3.5084,2.08337,0,1.97319-3.17969,5.59178-4.276,7.127Z"/><path class="cls-2" d="M356.28006,486.65633c-4.93436,6.03068-14.58177,15.89753-22.91434,15.89753-6.46864,0-9.42888-7.4557-9.42888-13.04654,0-13.37619,13.704-26.42274,20.2828-26.42274,1.86392,0,4.82416.65742,4.82416,3.0695,0,5.48252-10.85391,15.24012-15.45956,18.41888-.87687,4.49546.76761,6.90754,5.81123,6.90754,5.81122,0,11.51226-5.81029,15.89753-8.99ZM345.75485,456.177c0-4.49453,5.26214-8.44183,9.53815-8.44183a3.467,3.467,0,0,1,3.61766,3.39915c0,4.38526-4.05656,9.75759-8.77054,9.75759A4.41274,4.41274,0,0,1,345.75485,456.177Z"/><path class="cls-2" d="M407.15514,479.20156l.87687,4.82324c-5.8103,5.15381-17.10311,18.63832-25.107,18.63832-4.16582,0-6.139-3.50747-6.139-7.23532,0-6.57883,5.92048-13.81509,9.42888-18.85777l-.21945-.21945a87.35557,87.35557,0,0,0-16.88458,16.7744c-1.64448,2.08337-5.701,7.4557-8.66128,7.4557-4.82417,0-6.02974-6.90755-6.13994-10.6354-.3287-7.565,6.57884-18.63832,12.93729-24.01065,1.426-1.20557,2.41208-1.31483,4.276-1.31483,6.5779.21852,6.02974,1.75373,6.02974,2.41115,0,4.276-13.81415,15.34937-13.81415,17.98091a1.21689,1.21689,0,0,0,1.20651,1.20651c.76761,0,1.75373-.98706,2.19263-1.53522,8.77054-11.18356,28.94408-24.669,32.12377-24.669.438,0,1.09632.54816,1.75373,2.08337a25.48,25.48,0,0,1,1.64448,5.92049c0,4.276-13.48451,12.60858-13.48451,20.17354a2.0376,2.0376,0,0,0,1.97318,1.97318c2.63154,0,7.45477-3.83711,9.42889-5.48158Z"/><path class="cls-2" d="M424.15459,493.45368c-2.08244,1.64448-9.09925,7.34645-11.62152,7.34645-3.0695,0-9.42889-7.23625-9.64834-12.93729-.438-13.70489,28.06721-27.7385,40.786-28.06721,5.04268-.11019,7.12606,3.94637,7.12606,5.26214s-2.851,2.41208-3.83711,2.74079c2.08244.8778,3.17969,2.08338,3.17969,4.49546,0,3.5084-9.53907,11.18262-9.53907,16.3355,0,1.86392,1.64447,2.63153,3.39914,2.63153,4.60472,0,10.85391-5.59084,15.56789-8.77054l.8778,4.05656c-4.71491,5.37233-19.40593,17.10311-24.77826,17.10311-3.61859,0-5.26307-2.63154-5.26307-5.81029,0-3.50841,2.63154-9.31963,4.05656-12.27988l-.21852-.21945Zm-13.266-2.85005c.10926.54816.54816,2.52135,2.19264,2.19264,2.19263-.4389,5.59177-.10926,27.2996-22.03747l-.21852-.21945C414.06829,478.54321,410.88859,485.23131,410.88859,490.60363Z"/></svg>